<svg xmlns="http://www.w3.org/2000/svg" viewBox="0 0 84 84" fill="currentColor" aria-hidden="true">
  <!-- 6×6 dot grid — dots spaced 14px apart, starting at 7px -->
  <!-- Row 1 -->
  <circle cx="7"  cy="7"  r="1.5"/>
  <circle cx="21" cy="7"  r="1.5"/>
  <circle cx="35" cy="7"  r="1.5"/>
  <circle cx="49" cy="7"  r="1.5"/>
  <circle cx="63" cy="7"  r="1.5"/>
  <circle cx="77" cy="7"  r="1.5"/>
  <!-- Row 2 -->
  <circle cx="7"  cy="21" r="1.5"/>
  <circle cx="21" cy="21" r="1.5"/>
  <circle cx="35" cy="21" r="1.5"/>
  <circle cx="49" cy="21" r="1.5"/>
  <circle cx="63" cy="21" r="1.5"/>
  <circle cx="77" cy="21" r="1.5"/>
  <!-- Row 3 -->
  <circle cx="7"  cy="35" r="1.5"/>
  <circle cx="21" cy="35" r="1.5"/>
  <circle cx="35" cy="35" r="1.5"/>
  <circle cx="49" cy="35" r="1.5"/>
  <circle cx="63" cy="35" r="1.5"/>
  <circle cx="77" cy="35" r="1.5"/>
  <!-- Row 4 -->
  <circle cx="7"  cy="49" r="1.5"/>
  <circle cx="21" cy="49" r="1.5"/>
  <circle cx="35" cy="49" r="1.5"/>
  <circle cx="49" cy="49" r="1.5"/>
  <circle cx="63" cy="49" r="1.5"/>
  <circle cx="77" cy="49" r="1.5"/>
  <!-- Row 5 -->
  <circle cx="7"  cy="63" r="1.5"/>
  <circle cx="21" cy="63" r="1.5"/>
  <circle cx="35" cy="63" r="1.5"/>
  <circle cx="49" cy="63" r="1.5"/>
  <circle cx="63" cy="63" r="1.5"/>
  <circle cx="77" cy="63" r="1.5"/>
  <!-- Row 6 -->
  <circle cx="7"  cy="77" r="1.5"/>
  <circle cx="21" cy="77" r="1.5"/>
  <circle cx="35" cy="77" r="1.5"/>
  <circle cx="49" cy="77" r="1.5"/>
  <circle cx="63" cy="77" r="1.5"/>
  <circle cx="77" cy="77" r="1.5"/>
</svg>
